<mxfile host="Electron" agent="Mozilla/5.0 (Windows NT 10.0; Win64; x64) AppleWebKit/537.36 (KHTML, like Gecko) draw.io/24.7.8 Chrome/128.0.6613.36 Electron/32.0.1 Safari/537.36" version="24.7.8">
  <diagram id="yPxyJZ8AM_hMuL3Unpa9" name="complex gitflow">
    <mxGraphModel dx="683" dy="421" grid="1" gridSize="10" guides="1" tooltips="1" connect="1" arrows="1" fold="1" page="1" pageScale="1" pageWidth="1100" pageHeight="850" math="0" shadow="0">
      <root>
        <mxCell id="0" />
        <mxCell id="1" parent="0" />
        <mxCell id="kYi4eVeZb-P7_ZHlsTHM-3" value="Awaiting" style="ellipse;whiteSpace=wrap;html=1;aspect=fixed;" vertex="1" parent="1">
          <mxGeometry x="200" y="160" width="80" height="80" as="geometry" />
        </mxCell>
        <mxCell id="kYi4eVeZb-P7_ZHlsTHM-4" value="Comment" style="ellipse;whiteSpace=wrap;html=1;aspect=fixed;" vertex="1" parent="1">
          <mxGeometry x="400" y="310" width="80" height="80" as="geometry" />
        </mxCell>
        <mxCell id="kYi4eVeZb-P7_ZHlsTHM-5" value="Asterisk" style="ellipse;whiteSpace=wrap;html=1;aspect=fixed;" vertex="1" parent="1">
          <mxGeometry x="200" y="310" width="80" height="80" as="geometry" />
        </mxCell>
        <mxCell id="kYi4eVeZb-P7_ZHlsTHM-6" value="Slash" style="ellipse;whiteSpace=wrap;html=1;aspect=fixed;" vertex="1" parent="1">
          <mxGeometry x="400" y="160" width="80" height="80" as="geometry" />
        </mxCell>
        <mxCell id="kYi4eVeZb-P7_ZHlsTHM-7" value="" style="endArrow=classic;html=1;rounded=0;entryX=-0.038;entryY=0.505;entryDx=0;entryDy=0;entryPerimeter=0;" edge="1" parent="1" target="kYi4eVeZb-P7_ZHlsTHM-6">
          <mxGeometry width="50" height="50" relative="1" as="geometry">
            <mxPoint x="280" y="200" as="sourcePoint" />
            <mxPoint x="330" y="150" as="targetPoint" />
          </mxGeometry>
        </mxCell>
        <mxCell id="kYi4eVeZb-P7_ZHlsTHM-8" value="" style="endArrow=classic;html=1;rounded=0;entryX=0.5;entryY=0;entryDx=0;entryDy=0;exitX=0.5;exitY=1;exitDx=0;exitDy=0;" edge="1" parent="1" source="kYi4eVeZb-P7_ZHlsTHM-6" target="kYi4eVeZb-P7_ZHlsTHM-4">
          <mxGeometry width="50" height="50" relative="1" as="geometry">
            <mxPoint x="390" y="290" as="sourcePoint" />
            <mxPoint x="507" y="290" as="targetPoint" />
          </mxGeometry>
        </mxCell>
        <mxCell id="kYi4eVeZb-P7_ZHlsTHM-9" value="" style="endArrow=classic;html=1;rounded=0;entryX=1;entryY=0.5;entryDx=0;entryDy=0;exitX=0;exitY=0.5;exitDx=0;exitDy=0;" edge="1" parent="1" source="kYi4eVeZb-P7_ZHlsTHM-4" target="kYi4eVeZb-P7_ZHlsTHM-5">
          <mxGeometry width="50" height="50" relative="1" as="geometry">
            <mxPoint x="450" y="200" as="sourcePoint" />
            <mxPoint x="450" y="320" as="targetPoint" />
          </mxGeometry>
        </mxCell>
        <mxCell id="kYi4eVeZb-P7_ZHlsTHM-10" value="" style="endArrow=classic;html=1;rounded=0;entryX=0.5;entryY=1;entryDx=0;entryDy=0;exitX=0.5;exitY=0;exitDx=0;exitDy=0;" edge="1" parent="1" source="kYi4eVeZb-P7_ZHlsTHM-5" target="kYi4eVeZb-P7_ZHlsTHM-3">
          <mxGeometry width="50" height="50" relative="1" as="geometry">
            <mxPoint x="410" y="410" as="sourcePoint" />
            <mxPoint x="290" y="410" as="targetPoint" />
          </mxGeometry>
        </mxCell>
        <mxCell id="kYi4eVeZb-P7_ZHlsTHM-13" value="" style="curved=1;endArrow=classic;html=1;rounded=0;exitX=0.016;exitY=0.404;exitDx=0;exitDy=0;exitPerimeter=0;" edge="1" parent="1" source="kYi4eVeZb-P7_ZHlsTHM-3" target="kYi4eVeZb-P7_ZHlsTHM-3">
          <mxGeometry width="50" height="50" relative="1" as="geometry">
            <mxPoint x="140" y="160" as="sourcePoint" />
            <mxPoint x="170" y="210" as="targetPoint" />
            <Array as="points">
              <mxPoint x="180" y="200" />
            </Array>
          </mxGeometry>
        </mxCell>
        <mxCell id="kYi4eVeZb-P7_ZHlsTHM-14" value="&#39;/&#39;" style="text;html=1;align=center;verticalAlign=middle;resizable=0;points=[];autosize=1;strokeColor=none;fillColor=none;" vertex="1" parent="1">
          <mxGeometry x="240" y="260" width="30" height="30" as="geometry" />
        </mxCell>
        <mxCell id="kYi4eVeZb-P7_ZHlsTHM-15" value="&#39;/&#39;" style="text;html=1;align=center;verticalAlign=middle;resizable=0;points=[];autosize=1;strokeColor=none;fillColor=none;" vertex="1" parent="1">
          <mxGeometry x="320" y="168" width="30" height="30" as="geometry" />
        </mxCell>
        <mxCell id="kYi4eVeZb-P7_ZHlsTHM-16" value="&#39;*&#39;" style="text;html=1;align=center;verticalAlign=middle;resizable=0;points=[];autosize=1;strokeColor=none;fillColor=none;" vertex="1" parent="1">
          <mxGeometry x="440" y="260" width="30" height="30" as="geometry" />
        </mxCell>
        <mxCell id="kYi4eVeZb-P7_ZHlsTHM-17" value="&#39;*&#39;" style="text;html=1;align=center;verticalAlign=middle;resizable=0;points=[];autosize=1;strokeColor=none;fillColor=none;" vertex="1" parent="1">
          <mxGeometry x="320" y="350" width="30" height="30" as="geometry" />
        </mxCell>
        <mxCell id="kYi4eVeZb-P7_ZHlsTHM-19" value="" style="curved=1;endArrow=classic;html=1;rounded=0;exitX=1.016;exitY=0.404;exitDx=0;exitDy=0;exitPerimeter=0;" edge="1" parent="1" source="kYi4eVeZb-P7_ZHlsTHM-4" target="kYi4eVeZb-P7_ZHlsTHM-4">
          <mxGeometry width="50" height="50" relative="1" as="geometry">
            <mxPoint x="541" y="337.5" as="sourcePoint" />
            <mxPoint x="542" y="362.5" as="targetPoint" />
            <Array as="points" />
          </mxGeometry>
        </mxCell>
        <mxCell id="kYi4eVeZb-P7_ZHlsTHM-20" value="∀" style="text;html=1;align=center;verticalAlign=middle;resizable=0;points=[];autosize=1;strokeColor=none;fillColor=none;" vertex="1" parent="1">
          <mxGeometry x="500" y="335" width="30" height="30" as="geometry" />
        </mxCell>
        <mxCell id="kYi4eVeZb-P7_ZHlsTHM-24" value="∀&lt;sub&gt;C&lt;/sub&gt;/C" style="text;html=1;align=center;verticalAlign=middle;resizable=0;points=[];autosize=1;strokeColor=none;fillColor=none;" vertex="1" parent="1">
          <mxGeometry x="145" y="210" width="50" height="30" as="geometry" />
        </mxCell>
        <mxCell id="kYi4eVeZb-P7_ZHlsTHM-26" value="" style="curved=1;endArrow=classic;html=1;rounded=0;exitX=0;exitY=0;exitDx=0;exitDy=0;" edge="1" parent="1" source="kYi4eVeZb-P7_ZHlsTHM-6" target="kYi4eVeZb-P7_ZHlsTHM-3">
          <mxGeometry width="50" height="50" relative="1" as="geometry">
            <mxPoint x="320" y="320" as="sourcePoint" />
            <mxPoint x="370" y="270" as="targetPoint" />
            <Array as="points">
              <mxPoint x="340" y="100" />
            </Array>
          </mxGeometry>
        </mxCell>
        <mxCell id="kYi4eVeZb-P7_ZHlsTHM-27" value="∀&lt;sub&gt;C&lt;/sub&gt;/&#39;/&#39;C" style="text;html=1;align=center;verticalAlign=middle;resizable=0;points=[];autosize=1;strokeColor=none;fillColor=none;" vertex="1" parent="1">
          <mxGeometry x="320" y="100" width="60" height="30" as="geometry" />
        </mxCell>
        <mxCell id="kYi4eVeZb-P7_ZHlsTHM-32" value="" style="curved=1;endArrow=classic;html=1;rounded=0;exitX=0.974;exitY=0.38;exitDx=0;exitDy=0;exitPerimeter=0;" edge="1" parent="1" source="kYi4eVeZb-P7_ZHlsTHM-6" target="kYi4eVeZb-P7_ZHlsTHM-6">
          <mxGeometry width="50" height="50" relative="1" as="geometry">
            <mxPoint x="480" y="190" as="sourcePoint" />
            <mxPoint x="530" y="140" as="targetPoint" />
          </mxGeometry>
        </mxCell>
        <mxCell id="kYi4eVeZb-P7_ZHlsTHM-33" value="&#39;/&#39;/&#39;/&#39;" style="text;html=1;align=center;verticalAlign=middle;resizable=0;points=[];autosize=1;strokeColor=none;fillColor=none;" vertex="1" parent="1">
          <mxGeometry x="495" y="190" width="40" height="30" as="geometry" />
        </mxCell>
        <mxCell id="kYi4eVeZb-P7_ZHlsTHM-34" value="" style="curved=1;endArrow=classic;html=1;rounded=0;exitX=-0.014;exitY=0.374;exitDx=0;exitDy=0;exitPerimeter=0;" edge="1" parent="1" source="kYi4eVeZb-P7_ZHlsTHM-5" target="kYi4eVeZb-P7_ZHlsTHM-5">
          <mxGeometry width="50" height="50" relative="1" as="geometry">
            <mxPoint x="155" y="315" as="sourcePoint" />
            <mxPoint x="185" y="365" as="targetPoint" />
            <Array as="points">
              <mxPoint x="180" y="350" />
            </Array>
          </mxGeometry>
        </mxCell>
        <mxCell id="kYi4eVeZb-P7_ZHlsTHM-35" value="&#39;*&#39;" style="text;html=1;align=center;verticalAlign=middle;resizable=0;points=[];autosize=1;strokeColor=none;fillColor=none;" vertex="1" parent="1">
          <mxGeometry x="155" y="338" width="30" height="30" as="geometry" />
        </mxCell>
        <mxCell id="kYi4eVeZb-P7_ZHlsTHM-36" value="" style="curved=1;endArrow=classic;html=1;rounded=0;exitX=0.826;exitY=0.91;exitDx=0;exitDy=0;exitPerimeter=0;entryX=0.189;entryY=0.898;entryDx=0;entryDy=0;entryPerimeter=0;" edge="1" parent="1" source="kYi4eVeZb-P7_ZHlsTHM-5" target="kYi4eVeZb-P7_ZHlsTHM-4">
          <mxGeometry width="50" height="50" relative="1" as="geometry">
            <mxPoint x="300" y="440" as="sourcePoint" />
            <mxPoint x="350" y="390" as="targetPoint" />
            <Array as="points">
              <mxPoint x="340" y="440" />
            </Array>
          </mxGeometry>
        </mxCell>
        <mxCell id="kYi4eVeZb-P7_ZHlsTHM-37" value="∀" style="text;html=1;align=center;verticalAlign=middle;resizable=0;points=[];autosize=1;strokeColor=none;fillColor=none;" vertex="1" parent="1">
          <mxGeometry x="320" y="410" width="30" height="30" as="geometry" />
        </mxCell>
        <mxCell id="kYi4eVeZb-P7_ZHlsTHM-38" value="" style="shape=waypoint;sketch=0;size=6;pointerEvents=1;points=[];fillColor=none;resizable=0;rotatable=0;perimeter=centerPerimeter;snapToPoint=1;" vertex="1" parent="1">
          <mxGeometry x="170" y="130" width="20" height="20" as="geometry" />
        </mxCell>
        <mxCell id="kYi4eVeZb-P7_ZHlsTHM-40" value="" style="endArrow=classic;html=1;rounded=0;entryX=0;entryY=0;entryDx=0;entryDy=0;" edge="1" parent="1" source="kYi4eVeZb-P7_ZHlsTHM-38" target="kYi4eVeZb-P7_ZHlsTHM-3">
          <mxGeometry width="50" height="50" relative="1" as="geometry">
            <mxPoint x="220" y="150" as="sourcePoint" />
            <mxPoint x="270" y="100" as="targetPoint" />
          </mxGeometry>
        </mxCell>
      </root>
    </mxGraphModel>
  </diagram>
</mxfile>
